<?xml version="1.0" encoding="UTF-8"?>
<svg width="309px" height="38px" viewBox="0 0 309 38" version="1.1" xmlns="http://www.w3.org/2000/svg" xmlns:xlink="http://www.w3.org/1999/xlink">
    <!-- Generator: Sketch 47.1 (45422) - http://www.bohemiancoding.com/sketch -->
    <title>negoto-digital</title>
    <desc>Created with Sketch.</desc>
    <defs></defs>
    <g id="Page-1" stroke="none" stroke-width="1" fill="none" fill-rule="evenodd">
        <g id="negoto-digital" stroke-width="0.5" stroke="#666766">
            <g id="Group">
                <path d="M0.316108374,37.2503941 L0.316108374,0.647487685" id="Shape"></path>
                <path d="M11.2287192,37.2503941 L11.2287192,0.647487685" id="Shape"></path>
                <path d="M0.316108374,0.647487685 L11.2287192,37.2503941" id="Shape"></path>
            </g>
            <g id="Group" transform="translate(24.433498, 0.000000)">
                <path d="M1.25374384,0.647487685 L12.1663547,0.647487685" id="Shape"></path>
                <path d="M1.25374384,37.2503941 L12.1663547,37.2503941" id="Shape"></path>
                <path d="M1.25374384,37.2503941 L1.25374384,0.647487685" id="Shape"></path>
                <path d="M1.25374384,18.9497044 L12.1663547,18.9497044" id="Shape"></path>
            </g>
            <g id="Group" transform="translate(100.788177, 0.000000)">
                <path d="M1.01551724,0.647487685 L11.9250739,0.647487685" id="Shape"></path>
                <path d="M6.47029557,0.647487685 L6.47029557,37.1099015" id="Shape"></path>
            </g>
            <path d="M234.211872,0.647487685 L234.211872,37.1099015" id="Shape"></path>
            <path d="M193.114729,0.647487685 L193.114729,37.1099015" id="Shape"></path>
            <g id="Group" transform="translate(247.389163, 0.000000)">
                <path d="M1.10103448,0.647487685 L12.0136453,0.647487685" id="Shape"></path>
                <path d="M6.55581281,0.647487685 L6.55581281,37.1099015" id="Shape"></path>
            </g>
            <g id="Group" transform="translate(297.783251, 0.000000)">
                <path d="M0.00305418719,37.2503941 L10.915665,37.2503941" id="Shape"></path>
                <path d="M0.00305418719,37.2503941 L0.00305418719,0.647487685" id="Shape"></path>
            </g>
            <g id="Group" transform="translate(166.453202, 0.000000)">
                <path d="M1.288867,0.647487685 L9.71384236,0.647487685" id="Shape"></path>
                <path d="M1.288867,37.2503941 L9.71384236,37.2503941" id="Shape"></path>
                <path d="M1.288867,37.2503941 L1.288867,0.647487685" id="Shape"></path>
                <path d="M12.2014778,3.13512315 L12.2014778,34.7642857" id="Shape"></path>
                <path d="M9.71384236,0.647487685 C11.0866995,0.647487685 12.2014778,1.76073892 12.2014778,3.13359606" id="Shape"></path>
                <path d="M9.71384236,37.2503941 C11.0866995,37.2503941 12.2014778,36.1371429 12.2014778,34.7642857" id="Shape"></path>
            </g>
            <g id="Group" transform="translate(50.394089, 0.000000)">
                <path d="M5.48837438,18.9497044 L11.5784236,18.9497044" id="Shape"></path>
                <path d="M3.15192118,0.647487685 L9.09078818,0.647487685" id="Shape"></path>
                <path d="M3.15192118,37.2503941 L9.09078818,37.2503941" id="Shape"></path>
                <path d="M0.665812808,34.7642857 L0.665812808,3.13512315" id="Shape"></path>
                <path d="M11.5784236,18.9497044 L11.5784236,34.7642857" id="Shape"></path>
                <path d="M3.15192118,0.647487685 C1.77906404,0.647487685 0.665812808,1.76073892 0.665812808,3.13359606" id="Shape"></path>
                <path d="M9.09078818,0.647487685 C10.4621182,0.647487685 11.5768966,1.76073892 11.5768966,3.13359606" id="Shape"></path>
                <path d="M3.15192118,37.2503941 C1.77906404,37.2503941 0.665812808,36.1371429 0.665812808,34.7642857" id="Shape"></path>
                <path d="M9.09078818,37.2503941 C10.4621182,37.2503941 11.5768966,36.1371429 11.5768966,34.7642857" id="Shape"></path>
            </g>
            <g id="Group" transform="translate(271.822660, 0.000000)">
                <path d="M3.07862069,0.647487685 L9.01901478,0.647487685" id="Shape"></path>
                <path d="M0.594039409,37.2503941 L0.594039409,3.13512315" id="Shape"></path>
                <path d="M0.594039409,18.9497044 L11.5035961,18.9497044" id="Shape"></path>
                <path d="M11.5035961,37.2503941 L11.5035961,3.13512315" id="Shape"></path>
                <path d="M3.07862069,0.647487685 C1.70729064,0.647487685 0.594039409,1.76073892 0.594039409,3.13359606" id="Shape"></path>
                <path d="M9.01901478,0.647487685 C10.3903448,0.647487685 11.5035961,1.76073892 11.5035961,3.13359606" id="Shape"></path>
            </g>
            <g id="Group" transform="translate(76.354680, 0.000000)">
                <path d="M2.56246305,0.647487685 L8.50133005,0.647487685" id="Shape"></path>
                <path d="M2.56246305,37.2503941 L8.50133005,37.2503941" id="Shape"></path>
                <path d="M0.0763546798,34.7642857 L0.0763546798,3.13512315" id="Shape"></path>
                <path d="M10.9859113,3.13512315 L10.9859113,34.7642857" id="Shape"></path>
                <path d="M2.56246305,0.647487685 C1.18960591,0.647487685 0.0763546798,1.76073892 0.0763546798,3.13359606" id="Shape"></path>
                <path d="M8.50133005,0.647487685 C9.87418719,0.647487685 10.9859113,1.76073892 10.9859113,3.13359606" id="Shape"></path>
                <path d="M2.56246305,37.2503941 C1.18960591,37.2503941 0.0763546798,36.1371429 0.0763546798,34.7642857" id="Shape"></path>
                <path d="M8.50133005,37.2503941 C9.87418719,37.2503941 10.9859113,36.1371429 10.9859113,34.7642857" id="Shape"></path>
            </g>
            <g id="Group" transform="translate(126.748768, 0.000000)">
                <path d="M2.91064039,0.647487685 L8.85103448,0.647487685" id="Shape"></path>
                <path d="M2.91064039,37.2503941 L8.85103448,37.2503941" id="Shape"></path>
                <path d="M0.426059113,34.7642857 L0.426059113,3.13512315" id="Shape"></path>
                <path d="M11.3371429,3.13512315 L11.3371429,34.7642857" id="Shape"></path>
                <path d="M2.91064039,0.647487685 C1.53931034,0.647487685 0.426059113,1.76073892 0.426059113,3.13359606" id="Shape"></path>
                <path d="M8.85103448,0.647487685 C10.2238916,0.647487685 11.3371429,1.76073892 11.3371429,3.13359606" id="Shape"></path>
                <path d="M2.91064039,37.2503941 C1.53931034,37.2503941 0.426059113,36.1371429 0.426059113,34.7642857" id="Shape"></path>
                <path d="M8.85103448,37.2503941 C10.2238916,37.2503941 11.3371429,36.1371429 11.3371429,34.7642857" id="Shape"></path>
            </g>
            <g id="Group" transform="translate(207.684729, 0.000000)">
                <path d="M5.98009852,18.9497044 L12.0670936,18.9497044" id="Shape"></path>
                <path d="M3.63906404,0.647487685 L9.57945813,0.647487685" id="Shape"></path>
                <path d="M3.63906404,37.2503941 L9.57945813,37.2503941" id="Shape"></path>
                <path d="M1.15448276,34.7642857 L1.15448276,3.13512315" id="Shape"></path>
                <path d="M12.0640394,18.9497044 L12.0640394,34.7642857" id="Shape"></path>
                <path d="M3.63906404,0.647487685 C2.27078818,0.647487685 1.15448276,1.76073892 1.15448276,3.13359606" id="Shape"></path>
                <path d="M9.57945813,0.647487685 C10.9507882,0.647487685 12.0640394,1.76073892 12.0640394,3.13359606" id="Shape"></path>
                <path d="M3.63906404,37.2503941 C2.27078818,37.2503941 1.15448276,36.1371429 1.15448276,34.7642857" id="Shape"></path>
                <path d="M9.57945813,37.2503941 C10.9507882,37.2503941 12.0640394,36.1371429 12.0640394,34.7642857" id="Shape"></path>
            </g>
        </g>
    </g>
</svg>